# AST/ASF file generated using VICON BodyLanguage
# -----------------------------------------------
:version 1.10
:name VICON
:units
  mass 1.0
  length 0.1
  angle deg
:documentation
   .ast/.asf automatically generated from VICON data using
   VICON BodyBuilder and BodyLanguage model FULLBODY5.MOD
:root
   order TX TY TZ RZ RY RX
   axis XYZ
   position 0 0 0  
   orientation 0 -0 0 
:bonedata
  begin
     id 1 
     name lhipjoint
     direction 0.961525 -0.229516 0.150972 
     length 0.502153 
     axis 0 -0 0  XYZ
  end
  begin
     id 2 
     name lfemur
     direction 0.173648 -0.984808 0  
     length 1.83052  
     axis 0 -0 10  XYZ
    dof rx ry rz
    limits (-180.0 180.0)
           (-180.0 180.0)
           (-180.0 180.0)
  end
  begin
     id 3 
     name ltibia
     direction 0.173629 -0.984811 0   
     length 1.50296   
     axis 0 -0 10   XYZ
    dof rx ry rz
    limits (-180.0 180.0)
           (-180.0 180.0)
           (-180.0 180.0)
  end
  begin
     id 4 
     name lfoot
     direction 7.59329e-012 -0.227408 0.9738   
     length 0.574743   
     axis -90 -1.73656e-015 10   XYZ
    dof rx ry rz
    limits (-180.0 180.0)
           (-180.0 180.0)
           (-180.0 180.0)
  end
  begin
     id 5 
     name ltoes
     direction 7.79885e-012 -4.41741e-011 1   
     length 0.28489   
     axis -90 -1.73656e-015 10   XYZ
    dof rx ry rz
    limits (-180.0 180.0)
           (-180.0 180.0)
           (-180.0 180.0)
  end
  begin
     id 6 
     name rhipjoint
     direction -0.970498 -0.201437 0.132502   
     length 0.572149  
     axis 0 -0 0  XYZ 
  end
  begin
     id 7 
     name rfemur
     direction -0.173648 -0.984808 0   
     length 1.71866   
     axis 0 -0 -10   XYZ
    dof rx ry rz
    limits (-180.0 180.0)
           (-180.0 180.0)
           (-180.0 180.0)
  end
  begin
     id 8 
     name rtibia
     direction -0.173624 -0.984812 0   
     length 1.42623   
     axis 0 -0 -10   XYZ
    dof rx ry rz
    limits (-180.0 180.0)
           (-180.0 180.0)
           (-180.0 180.0)
 end
 begin
     id 9 
     name rfoot
     direction -7.12931e-012 -0.404275 0.914637   
     length 0.524692  
     axis -90 1.73656e-015 -10   XYZ
    dof rx ry rz
    limits (-180.0 180.0)
           (-180.0 180.0)
           (-180.0 180.0)
  end
  begin
     id 10 
     name rtoes
     direction -7.79289e-012 -4.41454e-011 1   
     length 0.254983   
     axis -90 1.73656e-015 -10   XYZ
    dof rx ry rz
    limits (-180.0 180.0)
           (-180.0 180.0)
           (-180.0 180.0)
  end
  begin
     id 11 
     name lowerback
     direction -0.0214086 0.993738 0.109665   
     length 0.417614   
     axis 0 -0 0   XYZ
    dof rx ry rz
    limits (-180.0 180.0)
           (-180.0 180.0)
           (-180.0 180.0)
  end
  begin
     id 12 
     name upperback
     direction 8.15962e-005 0.99996 0.00893412   
     length 0.419234   
     axis 0 -0 0   XYZ
    dof rx ry rz
    limits (-180.0 180.0)
           (-180.0 180.0)
           (-180.0 180.0)
  end
  begin
     id 13 
     name thorax
     direction 0.00826031 0.999067 -0.0423848   
     length 0.424697   
     axis 0 -0 0   XYZ
    dof rx ry rz
    limits (-180.0 180.0)
           (-180.0 180.0)
           (-180.0 180.0)
  end
  begin
     id 14 
     name lowerneck
     direction -0.0196262 0.994272 -0.105058   
     length 0.355877   
     axis 0 -0 0   XYZ
    dof rx ry rz
    limits (-180.0 180.0)
           (-180.0 180.0)
           (-180.0 180.0)
  end
  begin
     id 15 
     name upperneck
     direction 0.000117372 0.999091 0.0426261   
     length 0.351054   
     axis 0 -0 0   XYZ
    dof rx ry rz
    limits (-180.0 180.0)
           (-180.0 180.0)
           (-180.0 180.0)
  end
  begin
     id 16
     name head
     direction 0.00157618 0.999651 0.0263619  
     length 0.374844  
     axis 0 -0 0   XYZ
    dof rx ry rz
    limits (-180.0 180.0)
           (-180.0 180.0)
           (-180.0 180.0)
  end
  begin
     id 17 
     name lshoulderjoint
     direction 0.981627 -0.190809 0  
     length 0.701763  
     axis 0 -0 -11   XYZ
    dof rx ry rz
    limits (-180.0 180.0)
           (-180.0 180.0)
           (-180.0 180.0)
  end
  begin
     id 18 
     name lhumerus
     direction 0.48481 -0.87462 -1.80676e-026   
     length 0.994704   
     axis -180 5.14477e-009 -151   XYZ
    dof rx ry rz
    limits (-180.0 180.0)
           (-180.0 180.0)
           (-180.0 180.0)
  end
  begin
     id 19
     name lradius
     direction 0.48481 -0.87462 -3.2569e-026   
     length 0.617638   
     axis -180 5.14477e-009 -151   XYZ
    dof rx ry rz
    limits (-180.0 180.0)
           (-180.0 180.0)
           (-180.0 180.0)
  end
  begin
     id 20
     name lwrist
     direction 0.48481 -0.87462 -6.73202e-026   
     length 0.308819   
     axis -180 5.14477e-009 -151   XYZ
    dof rx ry rz
    limits (-180.0 180.0)
           (-180.0 180.0)
           (-180.0 180.0)
  end
  begin
     id 21 
     name lhand
     direction 0.478366 -0.863761 -0.158376   
     length 0.291656   
     axis -180 5.14477e-009 -151   XYZ
    dof rx ry rz
    limits (-180.0 180.0)
           (-180.0 180.0)
           (-180.0 180.0)
  end
  begin
     id 22 
     name rshoulderjoint
     direction -0.981627 -0.190809 0   
     length 0.66654  
     axis 0 -0 11   XYZ 
    dof rx ry rz
    limits (-180.0 180.0)
           (-180.0 180.0)
           (-180.0 180.0)
  end
  begin
     id 23 
     name rhumerus
     direction -0.48481 -0.87462 1.77576e-026  
     length 1.15089   
     axis 180 5.14477e-009 151   XYZ
    dof rx ry rz
    limits (-180.0 180.0)
           (-180.0 180.0)
           (-180.0 180.0)
  end
  begin
     id 24 
     name rradius
     direction -0.48481 -0.87462 3.79421e-026   
     length 0.613887   
     axis 180 5.14477e-009 151   XYZ
    dof rx ry rz
    limits (-180.0 180.0)
           (-180.0 180.0)
           (-180.0 180.0)
  end
  begin
     id 25 
     name rwrist
     direction -0.48481 -0.87462 5.43623e-026   
     length 0.306944   
     axis 180 5.14477e-009 151   XYZ
    dof rx ry rz
    limits (-180.0 180.0)
           (-180.0 180.0)
           (-180.0 180.0)
  end
  begin
     id 26
     name rhand
     direction -0.479273 -0.864638 -0.150661   
     length 0.306429   
     axis 180 5.14477e-009 151   XYZ
    dof rx ry rz
    limits (-180.0 180.0)
           (-180.0 180.0)
           (-180.0 180.0)
  end
:hierarchy
  begin
    root lhipjoint rhipjoint lowerback 
    lhipjoint lfemur
    lfemur ltibia
    ltibia lfoot
    lfoot ltoes
    rhipjoint rfemur
    rfemur rtibia
    rtibia rfoot
    rfoot rtoes
    lowerback upperback
    upperback thorax
    thorax lowerneck lshoulderjoint rshoulderjoint
    lowerneck upperneck
    upperneck head
    lshoulderjoint lhumerus
    lhumerus lradius
    lradius lwrist
    lwrist lhand
    rshoulderjoint rhumerus
    rhumerus rradius
    rradius rwrist
    rwrist rhand
  end

:FULLY-SPECIFIED
:DEGREES
566
root 6.41671 3.56964 -0.255654 93.7729 -75.3577 88.3352
lowerback -9.79225 -2.82331 -4.92559
upperback -1.87734 -3.30143 -0.266968
thorax 3.78666 -1.72177 2.05431
lowerneck 11.8083 1.82757 -1.87329
upperneck -6.23665 2.14347 -0.00191105
head -4.21253 1.10548 0.178244
rshoulderjoint 1.58044 -3.91861 -32.9856
rhumerus -6.06476 -18.8312 -58.9386
rradius 25.8845 -2.38542e-013 -9.93923e-014
rwrist -5.47812e-013 8.14619 1.04422e-013
rhand 8.21306 -6.8265 32.5884
lshoulderjoint 2.74613 10.3381 25.9644
lhumerus 6.63492 1.7722 53.0967
lradius 19.4582 3.73715e-014 -5.56597e-014
lwrist -5.27055e-013 -8.24204 -2.08894e-013
lhand 14.8807 7.61433 -22.0082
rfemur -39.9845 8.24901 4.55031
rtibia 39.1359 9.54166e-015 1.59028e-015
rfoot -10.9207 11.0612 -22.1723
rtoes -1.52667e-013 -1.11319e-014 -4.77083e-015
lfemur -6.42919 -7.71887 -22.1056
ltibia 1.74931e-014 7.15625e-015 9.54166e-015
lfoot -9.5667 -4.58446 12.4668
ltoes -1.81391e-013 -6.20084e-014 1.51076e-014
567
root 6.4057 3.5691 -0.255131 93.523 -75.3432 88.1872
lowerback -9.66041 -2.81858 -4.90207
upperback -1.84234 -3.30458 -0.197717
thorax 3.75328 -1.72237 2.11788
lowerneck 11.7707 1.789 -1.77955
upperneck -6.36958 2.10472 -0.03622
head -4.25066 1.08662 0.152334
rshoulderjoint 1.58589 -3.93818 -32.9551
rhumerus -6.21922 -19.0172 -58.7479
rradius 25.8951 -4.13472e-014 2.78299e-014
rwrist 1.43016e-013 8.25242 6.90974e-014
rhand 8.19859 -7.0422 32.6402
lshoulderjoint 2.72617 10.2584 25.9694
lhumerus 6.88195 1.14056 52.9771
lradius 19.818 -1.51076e-014 3.49861e-014
lwrist 2.66689e-013 -8.16485 1.12459e-013
lhand 14.5622 7.63841 -22.2104
rfemur -40.1916 8.13109 4.5901
rtibia 37.7507 3.02153e-014 7.15625e-015
rfoot -11.1037 11.2185 -21.9746
rtoes -7.63333e-014 1.69861e-013 -2.01965e-013
lfemur -6.26133 -7.76814 -22.0274
ltibia -9.54166e-015 -1.19271e-014 -2.38542e-014
lfoot -9.75578 -4.60805 12.5097
ltoes -1.56046e-014 3.57688e-014 8.98507e-014
568
root 6.39391 3.56833 -0.254632 93.3513 -75.2874 88.0884
lowerback -9.58011 -2.81989 -4.91132
upperback -1.82731 -3.31105 -0.12119
thorax 3.73005 -1.72524 2.20501
lowerneck 11.7197 1.78374 -1.81415
upperneck -6.46977 2.10082 0.0395383
head -4.27816 1.0824 0.184339
rshoulderjoint 1.5958 -3.96157 -32.9615
rhumerus -6.35209 -19.4057 -58.5988
rradius 25.8941 2.09917e-013 -6.91771e-014
rwrist 3.79473e-013 8.49979 -3.61786e-013
rhand 8.20767 -7.19292 32.6682
lshoulderjoint 2.71541 10.2251 25.9587
lhumerus 7.0825 0.646136 52.8758
lradius 20.2214 -2.62396e-014 -2.38542e-015
lwrist 3.01954e-013 -8.05894 5.13964e-014
lhand 14.3132 7.49924 -22.3582
rfemur -40.4251 7.97287 4.61884
rtibia 36.3348 -3.18055e-015 2.38542e-015
rfoot -11.0515 11.1629 -21.7537
rtoes 9.42239e-014 -7.00716e-015 -4.77083e-015
lfemur -6.12533 -7.81125 -21.9746
ltibia -1.59028e-014 7.95139e-015 9.54166e-015
lfoot -9.98357 -4.74856 12.6361
ltoes 4.63168e-014 -2.73453e-014 -2.14687e-014
569
root 6.38133 3.56742 -0.254305 93.2598 -75.2327 88.0419
lowerback -9.4925 -2.80914 -4.94275
upperback -1.83318 -3.30023 -0.0664856
thorax 3.67948 -1.71916 2.28514
lowerneck 11.7087 1.75245 -1.74958
upperneck -6.5588 2.06961 0.0391199
head -4.30689 1.06584 0.174564
rshoulderjoint 1.60663 -3.99383 -32.9351
rhumerus -6.53521 -19.8009 -58.4112
rradius 25.8853 9.22361e-014 7.55382e-014
rwrist -7.24444e-013 8.10095 1.60631e-013
rhand 8.58681 -6.82234 32.669
lshoulderjoint 2.70397 10.1657 25.9807
lhumerus 7.26723 0.173405 52.8143
lradius 20.6456 -1.94809e-014 -9.54166e-015
lwrist -8.79949e-013 -7.95945 -1.21234e-013
lhand 14.0435 7.33194 -22.5422
rfemur -40.6437 7.88026 4.5948
rtibia 34.8891 7.95139e-015 -1.59028e-014
rfoot -11.0162 11.0004 -21.6244
rtoes -2.04549e-013 8.62477e-014 1.59028e-014
lfemur -5.96515 -7.84026 -21.947
ltibia 3.18055e-014 2.38542e-015 -1.59028e-014
lfoot -10.2112 -4.68383 12.64
ltoes -1.89243e-013 4.81432e-014 1.19271e-014
570
root 6.36819 3.56638 -0.254077 93.2212 -75.1599 88.1037
lowerback -9.45555 -2.80016 -4.93389
upperback -1.81635 -3.29291 0.0261116
thorax 3.68103 -1.7156 2.37866
lowerneck 11.645 1.7466 -1.75438
upperneck -6.65684 2.06532 0.0673149
head -4.32993 1.06302 0.185332
rshoulderjoint 1.60906 -3.99661 -32.9514
rhumerus -6.66234 -20.165 -58.2542
rradius 25.871 2.00375e-013 7.83212e-014
rwrist -7.25382e-013 8.60594 7.88109e-014
rhand 8.45956 -7.24682 32.7675
lshoulderjoint 2.68351 10.1113 25.948
lhumerus 7.4572 -0.35269 52.7017
lradius 21.1055 -3.18055e-014 1.90833e-014
lwrist -1.00833e-012 -7.92921 -7.30561e-014
lhand 13.7103 7.33012 -22.7532
rfemur -40.8547 7.76385 4.65721
rtibia 33.4194 1.51076e-014 7.95139e-016
rfoot -10.9572 10.9809 -21.4847
rtoes 9.97899e-014 5.29264e-014 -1.00187e-013
lfemur -5.82223 -7.84456 -21.8646
ltibia -1.59028e-014 -1.43125e-014 6.36111e-015
lfoot -10.4449 -4.66065 12.6735
ltoes 9.64106e-014 -3.24889e-014 1.82882e-014
571
root 6.35411 3.56518 -0.253828 93.2898 -75.0732 88.224
lowerback -9.46023 -2.79827 -4.95376
upperback -1.80407 -3.28936 0.0861515
thorax 3.70084 -1.71465 2.45211
lowerneck 11.6215 1.73658 -1.68783
upperneck -6.78248 2.06278 0.0637205
head -4.36967 1.06079 0.171905
rshoulderjoint 1.61482 -4.01596 -32.9266
rhumerus -6.79106 -20.4638 -58.095
rradius 25.8481 -1.39944e-013 -7.59357e-014
rwrist -3.45977e-013 8.7943 4.18391e-014
rhand 8.51416 -7.42101 32.8549
lshoulderjoint 2.67641 10.0913 25.938
lhumerus 7.62752 -0.889409 52.5628
lradius 21.6043 -2.48481e-014 -5.56597e-014
lwrist -3.05004e-013 -7.84071 -1.35647e-013
lhand 13.3768 7.28633 -22.9775
rfemur -41.0672 7.64005 4.68354
rtibia 31.9495 -5.56597e-015 -5.56597e-015
rfoot -10.9029 10.9483 -21.3539
rtoes -7.39479e-014 9.83984e-015 1.27222e-014
lfemur -5.67145 -7.83608 -21.8339
ltibia 2.22639e-014 1.66979e-014 -4.77083e-015
lfoot -10.6871 -4.72334 12.7113
ltoes -7.51406e-014 5.2914e-014 -2.94201e-014
572
root 6.33953 3.56376 -0.253556 93.4014 -74.9464 88.3908
lowerback -9.49737 -2.78086 -4.9389
upperback -1.8001 -3.26707 0.135955
thorax 3.72592 -1.70411 2.49685
lowerneck 11.5626 1.72962 -1.64288
upperneck -6.88037 2.06351 0.0795403
head -4.39281 1.05958 0.169135
rshoulderjoint 1.62497 -4.04294 -32.9184
rhumerus -6.89839 -20.7824 -57.9713
rradius 25.8225 -2.8943e-013 -2.06736e-014
rwrist -5.47166e-013 8.82116 2.99332e-013
rhand 8.64907 -7.46711 32.912
lshoulderjoint 2.67199 10.0767 25.9348
lhumerus 7.81075 -1.34703 52.4955
lradius 22.1064 6.16232e-014 -9.14409e-014
lwrist -5.77689e-013 -7.68512 -2.86437e-013
lhand 13.121 7.06719 -23.2104
rfemur -41.3113 7.51628 4.71056
rtibia 30.4892 7.95139e-015 -5.56597e-015
rfoot -10.8629 10.8615 -21.2459
rtoes -1.19271e-013 1.08338e-013 -7.95139e-015
lfemur -5.55235 -7.82059 -21.7929
ltibia 3.18055e-014 6.36111e-015 -1.59028e-014
lfoot -10.9394 -4.63699 12.7339
ltoes -1.55648e-013 1.83876e-014 4.77083e-015
573
root 6.3242 3.56211 -0.253404 93.522 -74.8369 88.5613
lowerback -9.54889 -2.77065 -4.92239
upperback -1.78034 -3.25262 0.173094
thorax 3.77527 -1.69801 2.52537
lowerneck 11.5173 1.72507 -1.55055
upperneck -6.99798 2.072 0.0690286
head -4.42492 1.06223 0.148109
rshoulderjoint 1.63203 -4.07467 -32.8497
rhumerus -6.96592 -21.1558 -57.8141
rradius 25.7801 -6.26569e-013 2.62396e-014
rwrist 1.36815e-013 8.8837 5.79451e-013
rhand 8.7505 -7.49396 32.9349
lshoulderjoint 2.66472 10.0611 25.9178
lhumerus 7.98218 -1.83615 52.343
lradius 22.6533 4.41302e-014 -7.15625e-015
lwrist 4.52547e-013 -7.70735 2.00597e-014
lhand 12.7365 7.08103 -23.442
rfemur -41.504 7.40712 4.73879
rtibia 29.0217 1.90833e-014 0
rfoot -10.8813 10.7469 -21.1808
rtoes -5.00937e-014 1.39547e-013 -5.56597e-014
lfemur -5.40641 -7.80099 -21.761
ltibia 1.43125e-014 -9.54166e-015 -2.06736e-014
lfoot -11.1977 -4.69324 12.8199
ltoes 6.95746e-015 2.81032e-014 4.53229e-014
574
root 6.3082 3.56015 -0.253254 93.7212 -74.7141 88.8232
lowerback -9.648 -2.75895 -4.86441
upperback -1.74124 -3.23635 0.190264
thorax 3.86772 -1.69148 2.50755
lowerneck 11.4004 1.72184 -1.41549
upperneck -7.07644 2.08984 0.0552572
head -4.42754 1.06825 0.118426
rshoulderjoint 1.62968 -4.07949 -32.7978
rhumerus -7.02859 -21.5408 -57.7526
rradius 25.7446 1.27222e-013 -3.1408e-014
rwrist -4.84606e-013 8.97422 -8.37193e-014
rhand 8.83052 -7.53983 32.9815
lshoulderjoint 2.66462 10.0379 25.9498
lhumerus 8.16661 -2.25507 52.2284
lradius 23.2158 -5.59579e-014 -2.46493e-014
lwrist -5.67888e-013 -7.55467 -7.78038e-014
lhand 12.4194 6.89405 -23.6854
rfemur -41.7098 7.32834 4.78003
rtibia 27.5944 3.97569e-015 7.95139e-016
rfoot -10.9999 10.4935 -21.153
rtoes -1.29608e-013 5.50634e-014 -1.59028e-014
lfemur -5.25833 -7.75876 -21.7192
ltibia 1.74931e-014 0 -1.59028e-014
lfoot -11.4581 -4.63811 12.833
ltoes -1.24837e-013 2.85008e-014 -1.27222e-014
575
root 6.29158 3.55791 -0.25313 94.0096 -74.6408 89.1132
lowerback -9.66845 -2.75338 -4.89515
upperback -1.70793 -3.22456 0.233835
thorax 3.91715 -1.68739 2.56993
lowerneck 11.3219 1.73494 -1.40381
upperneck -7.19721 2.10966 0.0465255
head -4.45534 1.07859 0.111936
rshoulderjoint 1.64324 -4.11588 -32.7865
rhumerus -7.09238 -21.9241 -57.6345
rradius 25.7014 3.11694e-013 2.82274e-014
rwrist 4.27651e-013 9.14242 -2.8349e-013
rhand 8.86937 -7.5622 33.0118
lshoulderjoint 2.66211 10.0606 25.9045
lhumerus 8.31242 -2.78097 52.0949
lradius 23.7856 -1.41634e-014 1.39944e-013
lwrist 4.58672e-013 -7.43169 3.26363e-013
lhand 12.0404 6.80098 -23.9635
rfemur -41.8637 7.27051 4.76047
rtibia 26.2075 -1.35174e-014 5.56597e-015
rfoot -11.0991 10.4333 -21.1164
rtoes 1.78111e-013 -8.50798e-014 9.54166e-015
lfemur -5.04928 -7.70135 -21.7476
ltibia -3.33958e-014 5.56597e-015 2.38542e-014
lfoot -11.7377 -4.62592 12.8622
ltoes 1.37758e-013 -6.53877e-014 -7.39479e-014
576
root 6.27425 3.55538 -0.253052 94.2984 -74.559 89.4857
lowerback -9.73637 -2.72917 -4.82563
upperback -1.64985 -3.19438 0.271144
thorax 4.0116 -1.67393 2.56956
lowerneck 11.2019 1.72204 -1.29125
upperneck -7.29779 2.10883 0.0165557
head -4.46535 1.07679 0.0821345
rshoulderjoint 1.66096 -4.16597 -32.7599
rhumerus -7.06211 -22.1672 -57.6011
rradius 25.6779 -4.29375e-013 -1.51076e-013
rwrist 5.01727e-013 9.12969 2.89923e-014
rhand 8.84538 -7.4283 33.1253
lshoulderjoint 2.65727 10.0548 25.8866
lhumerus 8.52534 -3.36215 51.9242
lradius 24.3574 1.31198e-014 -8.90555e-014
lwrist 9.10619e-013 -7.28043 -5.21041e-014
lhand 11.6178 6.74768 -24.2445
rfemur -42.004 7.23703 4.83067
rtibia 24.8565 8.74653e-015 1.27222e-014
rfoot -11.1726 10.3951 -21.0728
rtoes 1.03368e-013 -5.56597e-014 -1.145e-013
lfemur -4.83473 -7.62263 -21.6984
ltibia -1.59028e-015 -1.59028e-015 6.36111e-015
lfoot -12.0222 -4.59032 12.8876
ltoes 2.3556e-014 -1.98909e-014 4.85035e-014
577
root 6.25631 3.55256 -0.253024 94.6108 -74.5029 89.7612
lowerback -9.62653 -2.7443 -4.89151
upperback -1.70517 -3.21765 0.312226
thorax 3.90056 -1.68386 2.65228
lowerneck 11.1856 1.75458 -1.23198
upperneck -7.3424 2.15443 -0.0567848
head -4.47669 1.10152 0.043084
rshoulderjoint 1.65958 -4.15432 -32.7987
rhumerus -7.22004 -21.6527 -57.4367
rradius 25.6466 -3.18055e-014 3.33958e-014
rwrist -2.72035e-013 8.90413 1.27164e-013
rhand 8.50551 -7.65363 33.449
lshoulderjoint 2.68036 10.1442 25.8854
lhumerus 8.52151 -3.71014 51.8771
lradius 24.9192 -8.94531e-015 4.45278e-014
lwrist -1.41044e-013 -7.15863 6.89192e-014
lhand 11.3506 6.53561 -24.426
rfemur -42.1218 7.20373 4.77954
rtibia 23.5644 1.27222e-014 3.18055e-015
rfoot -11.2026 10.4382 -21.0633
rtoes 1.11319e-014 8.07066e-014 -8.74653e-014
lfemur -4.58421 -7.56523 -21.7708
ltibia 1.43125e-014 -3.18055e-015 -1.59028e-014
lfoot -12.2949 -4.61907 12.9191
ltoes -2.74323e-014 7.7526e-015 5.88403e-014
